<?xml version="1.0" encoding="utf-8"?>
<!-- Generator: Adobe Illustrator 15.0.0, SVG Export Plug-In  -->
<!DOCTYPE svg PUBLIC "-//W3C//DTD SVG 1.1//EN" "http://www.w3.org/Graphics/SVG/1.1/DTD/svg11.dtd" [
	<!ENTITY ns_flows "http://ns.adobe.com/Flows/1.0/">
]>
<svg version="1.1"
	 xmlns="http://www.w3.org/2000/svg" xmlns:xlink="http://www.w3.org/1999/xlink" xmlns:a="http://ns.adobe.com/AdobeSVGViewerExtensions/3.0/"
	 x="0px" y="0px" width="48px" height="48px" viewBox="0 0 48 48" enable-background="new 0 0 48 48" xml:space="preserve">
<defs>
</defs>
<linearGradient id="SVGID_1_" gradientUnits="userSpaceOnUse" x1="6.1938" y1="24.9609" x2="41.4097" y2="24.9609">
	<stop  offset="0" style="stop-color:#3F0E9B"/>
	<stop  offset="0.6048" style="stop-color:#9C1186"/>
	<stop  offset="0.9091" style="stop-color:#CC127B"/>
	<a:midPointStop  offset="0" style="stop-color:#3F0E9B"/>
	<a:midPointStop  offset="0.5101" style="stop-color:#3F0E9B"/>
	<a:midPointStop  offset="0.9091" style="stop-color:#CC127B"/>
</linearGradient>
<path display="none" fill="url(#SVGID_1_)" d="M6.4,17.1c0,0-0.6,0.8,0,1.4C7,19.2,7,19.2,7,19.2s0.4,0.5,0.9,0.4
	c0.6-0.1,3.1-2.7,3.8-1.2c0.7,1.5,4.8,15.2,4.8,15.2s1.9,7.7,6,6.9c4.1-0.8,14.4-9.8,17.8-19.2c3.4-9.4-2-12.5-6.8-11.6
	c-4.8,0.9-7.6,7.2-6.4,7.4c0,0,0.2,0.4,1.4,0.4c1.2,0,3.4-0.4,2.8,2.6c-0.9,5.1-4.5,9-4.5,9s-2.4,3.1-3.1-0.9
	c-0.6-3.1-2.1-19.2-6.5-18.5C12.8,10.2,6.4,17.1,6.4,17.1z"/>
<path display="none" fill="#961187" d="M4,4C3.1,4.9,1.6,4.9,0.7,4s-0.9-2.4,0-3.3c0.9-0.9,2.4-0.9,3.3,0S4.9,3.1,4,4z"/>
<linearGradient id="SVGID_2_" gradientUnits="userSpaceOnUse" x1="0.6714" y1="16.1094" x2="32.105" y2="16.1094">
	<stop  offset="0" style="stop-color:#3F0E9B"/>
	<stop  offset="1.456314e-002" style="stop-color:#460E99"/>
	<stop  offset="9.805077e-002" style="stop-color:#6A0F91"/>
	<stop  offset="0.1895" style="stop-color:#88108A"/>
	<stop  offset="0.2891" style="stop-color:#A11185"/>
	<stop  offset="0.4002" style="stop-color:#B41180"/>
	<stop  offset="0.5292" style="stop-color:#C2127D"/>
	<stop  offset="0.692" style="stop-color:#CA127C"/>
	<stop  offset="1" style="stop-color:#CC127B"/>
	<a:midPointStop  offset="0" style="stop-color:#3F0E9B"/>
	<a:midPointStop  offset="0.1802" style="stop-color:#3F0E9B"/>
	<a:midPointStop  offset="1" style="stop-color:#CC127B"/>
</linearGradient>
<path display="none" fill="url(#SVGID_2_)" d="M3.6,30.9C0.7,23,2.7,14.1,8.6,8.2C14.4,2.3,23.2,0.3,31,3.1c0.4,0.1,0.9-0.1,1-0.5
	c0.1-0.4-0.1-0.9-0.5-1c-6.6-2.4-13.9-1.5-19.7,2c-0.8,0.2-1.5-0.1-1.5-0.1v0c-2-1-4.4-0.7-5.9,0.8c-1.5,1.6-1.8,3.9-0.8,5.9
	c0,0,0.4,1-0.1,2.1c0,0,0,0,0,0c-3.1,5.8-3.7,12.7-1.4,19.1c0,0.1,0.1,0.2,0.2,0.3c0.2,0.2,0.5,0.3,0.8,0.2
	C3.5,31.8,3.7,31.3,3.6,30.9z"/>
<g display="none">
	<g display="inline">
		<g display="none">
			<path display="inline" fill="#8D1089" d="M44.1,44.1c-0.9,0.9-0.9,2.4,0,3.3s2.4,0.9,3.3,0c0.9-0.9,0.9-2.4,0-3.3
				C46.4,43.1,45,43.1,44.1,44.1z"/>
		</g>
		<linearGradient id="SVGID_3_" gradientUnits="userSpaceOnUse" x1="16.1982" y1="31.5742" x2="47.7915" y2="31.5742">
			<stop  offset="0.2303" style="stop-color:#3F0E9B"/>
			<stop  offset="0.3449" style="stop-color:#430E9A"/>
			<stop  offset="0.4594" style="stop-color:#4F0E97"/>
			<stop  offset="0.5739" style="stop-color:#630F93"/>
			<stop  offset="0.6885" style="stop-color:#7F108C"/>
			<stop  offset="0.802" style="stop-color:#A31184"/>
			<stop  offset="0.9091" style="stop-color:#CC127B"/>
			<a:midPointStop  offset="0.2303" style="stop-color:#3F0E9B"/>
			<a:midPointStop  offset="0.7075" style="stop-color:#3F0E9B"/>
			<a:midPointStop  offset="0.9091" style="stop-color:#CC127B"/>
		</linearGradient>
		<path display="none" fill="url(#SVGID_3_)" d="M17.3,44.4c7.8,2.9,16.7,0.9,22.6-5c5.9-5.9,7.8-14.7,5.1-22.6
			c-0.1-0.4,0.1-0.9,0.5-1c0.4-0.1,0.9,0.1,1,0.5c2.3,6.6,1.5,13.9-2,19.8c-0.2,0.8,0.1,1.5,0.1,1.5l0,0c1,2,0.7,4.4-0.8,5.9
			c-1.5,1.6-3.9,1.8-5.9,0.8c0,0-1-0.4-2.1,0.1c0,0,0,0,0,0C30,47.7,23,48.3,16.7,46c-0.1,0-0.2-0.1-0.3-0.2
			c-0.2-0.2-0.3-0.5-0.2-0.8C16.4,44.5,16.9,44.3,17.3,44.4z"/>
	</g>
</g>
<linearGradient id="SVGID_4_" gradientUnits="userSpaceOnUse" x1="21.1982" y1="45.8008" x2="26.1585" y2="15.0342">
	<stop  offset="0.5254" style="stop-color:#3F0E9B"/>
	<stop  offset="0.7807" style="stop-color:#9C1186;stop-opacity:0.3347"/>
	<stop  offset="0.9091" style="stop-color:#CC127B;stop-opacity:0"/>
	<a:midPointStop  offset="0.5254" style="stop-color:#3F0E9B"/>
	<a:midPointStop  offset="0.5101" style="stop-color:#3F0E9B"/>
	<a:midPointStop  offset="0.9091" style="stop-color:#CC127B;stop-opacity:0"/>
</linearGradient>
<path display="none" opacity="0.52" fill="url(#SVGID_4_)" d="M32.8,12.6c2.4,3.8-2.1,9.1-2.1,9.1c-0.9,4.3-4,7.6-4,7.6
	s-1.5,2.5-2.6-0.9c-1-3.1-2-16.4-5.8-15.9c0,0-4.4,1.4-5.4,2.3c-0.6,0.6-0.6,1.3-0.4,1.6l1.8,4.8c1,3.3,3.4,11.9,3.4,11.9
	s1.5,6.6,5,6c3.6-0.6,12.5-8.1,15.6-16.1C41.4,15,30.5,9,32.8,12.6z"/>
<linearGradient id="SVGID_5_" gradientUnits="userSpaceOnUse" x1="4.3853" y1="30.3662" x2="44.3221" y2="13.1461">
	<stop  offset="0.2303" style="stop-color:#3F0E9B"/>
	<stop  offset="0.8242" style="stop-color:#CC127B"/>
	<a:midPointStop  offset="0.2303" style="stop-color:#3F0E9B"/>
	<a:midPointStop  offset="0.5" style="stop-color:#3F0E9B"/>
	<a:midPointStop  offset="0.8242" style="stop-color:#CC127B"/>
</linearGradient>
<path fill="url(#SVGID_5_)" d="M44.4,13.2l-3,1.3c1.8,4.3,2,9.1,0.4,13.4l-3.8-2.1c2.2-6.6-0.5-14-6.8-17.5
	c-1.6-0.9-3.2-1.4-4.9-1.7l0.2-3.1c2.4,0.3,4.7,1,6.9,2.2c1.5,0.8,2.8,1.8,4,3l2.3-2.3c-1.4-1.4-3-2.6-4.7-3.5
	c-8.9-5-19.9-3.2-26.7,4.4l2.4,2.2c2.8-3.1,6.4-5.1,10.3-5.8l-0.2,3.2c-3.9,0.9-7.5,3.4-9.6,7.2c-2.1,3.8-2.4,8.1-1.1,11.9L7,28
	c-1.4-3.8-1.5-8.1-0.1-12.3l-3.1-1.1c-3.4,9.9,0.8,20.9,10,26c1.9,1.1,4,1.8,6.1,2.3l0.7-3.2c-1.8-0.4-3.5-1-5.2-2
	c-2.3-1.3-4.2-3-5.7-5l3.2-2.2c1.1,1.3,2.4,2.4,4,3.3c6.3,3.5,14,1.9,18.4-3.3l3.9,2.2c-2.8,3.7-6.8,6.3-11.5,7.2l0.6,3.2
	C34.7,42,40.2,38,43.3,32.4C46.7,26.5,47,19.5,44.4,13.2z M34.3,28.2c-0.9,3.3-4.9,5.8-9.8,5.9v0c0,0,0,0-0.1,0c0,0,0,0-0.1,0v0
	c-4.9-0.2-9-2.7-9.8-5.9c-0.1-0.3-0.2-0.7-0.2-1.1c0-0.1,0-0.2,0-0.2c0-2.7,2.1-5,5.2-6.2c0.9-0.5,1.6-0.7,2.1-0.9
	c-1-1-1.7-2.6-1.7-4.3c0-0.4,0-0.8,0.1-1.2c-0.2-0.2-0.3-0.3-0.3-0.3v-2.6l-1.9-0.8l6.5-2.9V7.6l0.1,0l0.1,0v0.1l6.5,2.9l-1.9,0.8
	V14c0,0-0.1,0.1-0.3,0.3c0.1,0.4,0.1,0.8,0.1,1.2c0,1.7-0.7,3.3-1.7,4.3c0.4,0.1,1.2,0.4,2.1,0.9c3.1,1.3,5.2,3.6,5.2,6.2
	c0,0.1,0,0.2,0,0.2C34.5,27.6,34.5,27.9,34.3,28.2z"/>
<linearGradient id="SVGID_6_" gradientUnits="userSpaceOnUse" x1="23.9541" y1="36.6729" x2="23.82" y2="47.1173">
	<stop  offset="0.2303" style="stop-color:#3F0E9B"/>
	<stop  offset="0.5998" style="stop-color:#CC127B"/>
	<a:midPointStop  offset="0.2303" style="stop-color:#3F0E9B"/>
	<a:midPointStop  offset="0.5" style="stop-color:#3F0E9B"/>
	<a:midPointStop  offset="0.5998" style="stop-color:#CC127B"/>
</linearGradient>
<path fill="url(#SVGID_6_)" d="M23.9,48c0,0-1-9.2-3.1-10.3l3.1,1l3.2-1C27.1,37.8,24.3,40.5,23.9,48z"/>
<linearGradient id="SVGID_7_" gradientUnits="userSpaceOnUse" x1="9.6821" y1="13.1299" x2="1.4337" y2="7.0989">
	<stop  offset="0.3809" style="stop-color:#3F0E9B"/>
	<stop  offset="0.8242" style="stop-color:#CC127B"/>
	<a:midPointStop  offset="0.3809" style="stop-color:#3F0E9B"/>
	<a:midPointStop  offset="0.5" style="stop-color:#3F0E9B"/>
	<a:midPointStop  offset="0.8242" style="stop-color:#CC127B"/>
</linearGradient>
<path fill="url(#SVGID_7_)" d="M0,6.3c0,0,8.2,4.4,10.2,3.3l-2.6,2l-1,3.2C6.6,14.8,6,10.9,0,6.3z"/>
<linearGradient id="SVGID_8_" gradientUnits="userSpaceOnUse" x1="39.2964" y1="11.3115" x2="47.345" y2="5.0195">
	<stop  offset="0.2303" style="stop-color:#3F0E9B"/>
	<stop  offset="0.2782" style="stop-color:#530F97"/>
	<stop  offset="0.4176" style="stop-color:#87108B"/>
	<stop  offset="0.5389" style="stop-color:#AC1182"/>
	<stop  offset="0.636" style="stop-color:#C4127D"/>
	<stop  offset="0.697" style="stop-color:#CC127B"/>
	<a:midPointStop  offset="0.2303" style="stop-color:#3F0E9B"/>
	<a:midPointStop  offset="0.3947" style="stop-color:#3F0E9B"/>
	<a:midPointStop  offset="0.697" style="stop-color:#CC127B"/>
</linearGradient>
<path fill="url(#SVGID_8_)" d="M48,5.2c0,0-8.2,4.4-10.2,3.3l2.6,2l1,3.2C41.4,13.7,42.1,9.8,48,5.2z"/>
<linearGradient id="SVGID_9_" gradientUnits="userSpaceOnUse" x1="-7.373047e-002" y1="35.7695" x2="41.9769" y2="13.8234">
	<stop  offset="0" style="stop-color:#3F0E9B"/>
	<stop  offset="0.8242" style="stop-color:#CC127B"/>
	<a:midPointStop  offset="0" style="stop-color:#3F0E9B"/>
	<a:midPointStop  offset="0.5" style="stop-color:#3F0E9B"/>
	<a:midPointStop  offset="0.8242" style="stop-color:#CC127B"/>
</linearGradient>
<path display="none" fill="url(#SVGID_9_)" d="M1.7,31.1C2.8,43.9,10.9,48,10.9,48s-4.1-6.7-3.3-8.2c0.7-1.3,2.6-0.9,3.7-0.6
	c2.9,3,7.9,6.4,18.8,5.9C43.5,44.5,48,36.9,48,36.9s-7,3.7-8.6,2.9c-1-0.5-1-1.6-0.8-2.6c0.1-0.1,0.2-0.1,0.3-0.2
	c3.3-2.6,8.8-6.8,8.3-19.7C46.8,4.5,39,0,39,0s3.8,6.8,2.9,8.3c-1.1,1.9-4.5,0-4.5,0h0c-2.8-3.2-7.6-7.1-19.2-6.9
	C4.8,1.7,0,9.3,0,9.3s7.2-3.5,8.7-2.7C10.6,7.7,8.6,11,8.6,11l0,0c0,0,0,0,0,0C5.4,13.7,0.6,18.3,1.7,31.1z M7.3,23.6
	c0-6.1,3.4-11.4,8.6-14.2c0,0,0,0,0,0c0,0,0,0,0,0c2.5-1.4,5.3-2.2,8.4-2.2c9.4,0,17,7.3,17,16.3c0,9-7.6,16.3-17,16.3
	C14.9,40,7.3,32.7,7.3,23.6z"/>
<linearGradient id="SVGID_10_" gradientUnits="userSpaceOnUse" x1="19.4932" y1="23.2822" x2="33.6089" y2="23.2822">
	<stop  offset="0" style="stop-color:#3F0E9B"/>
	<stop  offset="0.8242" style="stop-color:#CC127B"/>
	<a:midPointStop  offset="0" style="stop-color:#3F0E9B"/>
	<a:midPointStop  offset="0.5" style="stop-color:#3F0E9B"/>
	<a:midPointStop  offset="0.8242" style="stop-color:#CC127B"/>
</linearGradient>
<polygon display="none" fill="url(#SVGID_10_)" points="19.5,15.3 19.5,31.3 33.6,23.3 "/>
<linearGradient id="SVGID_11_" gradientUnits="userSpaceOnUse" x1="8.1543" y1="26.9189" x2="42.8528" y2="10.5724">
	<stop  offset="0" style="stop-color:#3F0E9B"/>
	<stop  offset="0.8242" style="stop-color:#CC127B"/>
	<a:midPointStop  offset="0" style="stop-color:#3F0E9B"/>
	<a:midPointStop  offset="0.5" style="stop-color:#3F0E9B"/>
	<a:midPointStop  offset="0.8242" style="stop-color:#CC127B"/>
</linearGradient>
<path display="none" fill="url(#SVGID_11_)" d="M23.8,0C13.3,0,4.8,8.7,4.8,19.5c0,10.8,8.5,19.5,19.1,19.5
	c10.5,0,19.1-8.7,19.1-19.5C42.9,8.7,34.4,0,23.8,0z M23.8,36.2c-9,0-16.3-7.5-16.3-16.7S14.8,2.8,23.8,2.8c9,0,16.3,7.5,16.3,16.7
	S32.9,36.2,23.8,36.2z"/>
<linearGradient id="SVGID_12_" gradientUnits="userSpaceOnUse" x1="18.6426" y1="19.5249" x2="33.9741" y2="19.5249">
	<stop  offset="0" style="stop-color:#3F0E9B"/>
	<stop  offset="0.8242" style="stop-color:#CC127B"/>
	<a:midPointStop  offset="0" style="stop-color:#3F0E9B"/>
	<a:midPointStop  offset="0.5" style="stop-color:#3F0E9B"/>
	<a:midPointStop  offset="0.8242" style="stop-color:#CC127B"/>
</linearGradient>
<polygon display="none" fill="url(#SVGID_12_)" points="18.6,10.3 18.6,28.8 34,19.5 "/>
<path display="none" d="M2.6,4c0,0-0.1,0-0.1,0h0.3C2.7,4,2.6,4,2.6,4z"/>
<radialGradient id="SVGID_13_" cx="0.2808" cy="5.0361" r="8.9262" gradientTransform="matrix(0.9703 0 0 0.9922 0.4079 0.4704)" gradientUnits="userSpaceOnUse">
	<stop  offset="0.1758" style="stop-color:#CC127B"/>
	<stop  offset="1" style="stop-color:#3F0E9B"/>
	<a:midPointStop  offset="0.1758" style="stop-color:#CC127B"/>
	<a:midPointStop  offset="0.5" style="stop-color:#CC127B"/>
	<a:midPointStop  offset="1" style="stop-color:#3F0E9B"/>
</radialGradient>
<path display="none" fill="url(#SVGID_13_)" d="M2.1,4H1.8C0.8,4.1,0,4.9,0,6c0,0.2,0,0.4,0.1,0.6l0.3,0.6L4,13.8
	C5.1,9.9,7.3,6.6,10.2,4H2.1z"/>
<radialGradient id="SVGID_14_" cx="23.9839" cy="47.6865" r="7.8863" gradientTransform="matrix(0.9703 0 0 0.9922 0.4079 0.4704)" gradientUnits="userSpaceOnUse">
	<stop  offset="0.1758" style="stop-color:#CC127B"/>
	<stop  offset="1" style="stop-color:#3F0E9B"/>
	<a:midPointStop  offset="0.1758" style="stop-color:#CC127B"/>
	<a:midPointStop  offset="0.5" style="stop-color:#CC127B"/>
	<a:midPointStop  offset="1" style="stop-color:#3F0E9B"/>
</radialGradient>
<path display="none" fill="url(#SVGID_14_)" d="M23.8,40.7c-1.9,0-3.7-0.3-5.5-0.8l3.6,6.7l0.4,0.8c0.4,0.4,0.9,0.6,1.4,0.6
	c0.6,0,1.1-0.3,1.5-0.7l0.4-0.7l3.7-6.8C27.6,40.4,25.8,40.7,23.8,40.7z"/>
<radialGradient id="SVGID_15_" cx="48.8345" cy="4.5469" r="9.3091" gradientTransform="matrix(0.9703 0 0 0.9922 0.4079 0.4704)" gradientUnits="userSpaceOnUse">
	<stop  offset="0.1758" style="stop-color:#CC127B"/>
	<stop  offset="1" style="stop-color:#3F0E9B"/>
	<a:midPointStop  offset="0.1758" style="stop-color:#CC127B"/>
	<a:midPointStop  offset="0.5" style="stop-color:#CC127B"/>
	<a:midPointStop  offset="1" style="stop-color:#3F0E9B"/>
</radialGradient>
<path display="none" fill="url(#SVGID_15_)" d="M46.2,4h-0.3h-8.4c3,2.6,5.2,6.1,6.3,10.1l3.8-6.9l0.3-0.6C48,6.4,48,6.2,48,6
	C48,4.9,47.2,4.1,46.2,4z"/>
</svg>
